<svg class="w-[60px] h-[58px] flex justify-start items-center healing_ranch_logo absolute transition-all duration-1000 cursor-pointer logo-left" xmlns="http://www.w3.org/2000/svg" width="60" height="57.787" viewBox="0 0 60 57.787" data-v-2d09c5f8=""><g id="logo" transform="translate(-60.538 -74.643)" data-v-2d09c5f8=""><path id="Path_2614" data-name="Path 2614" d="M355.406,220.918a14.9,14.9,0,0,1-.582,3.211,22.56,22.56,0,0,1-5.394,9.166,19.289,19.289,0,0,1-5.425,4.1,5.76,5.76,0,0,1-1.728.662,1.134,1.134,0,0,1-1.043-.341c-.468-.508-.906-1.049-1.366-1.559a14.887,14.887,0,0,0-3.9-3.17c-.39-.21-.426-.489-.117-.81a1.279,1.279,0,0,1,.754-.356,13.1,13.1,0,0,0,6.379-2.778,13.426,13.426,0,0,0,3.678-5.015,23.232,23.232,0,0,0,1.286-3.849,4.254,4.254,0,0,1,1.61-2.639,3.6,3.6,0,0,1,5.634,1.912A4.918,4.918,0,0,1,355.406,220.918Z" transform="translate(-261.302 -141.758)" fill="#8D6826" data-v-2d09c5f8=""></path><path id="Path_2615" data-name="Path 2615" d="M579.851,457.282a29.257,29.257,0,0,0-1.785,2.77,21.079,21.079,0,0,0-2.128,5.084,11.189,11.189,0,0,0-.172,4.357,19.465,19.465,0,0,0,1.376,4.705,4.874,4.874,0,0,1,.373,3.089,3.69,3.69,0,0,1-6.5,1.242,10.756,10.756,0,0,1-1.6-2.9,18.411,18.411,0,0,1-1.308-9.013,31.232,31.232,0,0,1,2.314-8.729,4.1,4.1,0,0,1,.332-.694,1.848,1.848,0,0,1,2.172-.837,37.572,37.572,0,0,0,6.842.9A.535.535,0,0,1,579.851,457.282Z" transform="translate(-470.286 -357.12)" fill="#294617" data-v-2d09c5f8=""></path><path id="Path_2616" data-name="Path 2616" d="M346.194,563.708a22.81,22.81,0,0,1,4.033.315,1.758,1.758,0,0,1,1.661,1.948,16.354,16.354,0,0,0,.332,3.356,8.5,8.5,0,0,0,.8,2.133.725.725,0,0,1-.141,1.006.741.741,0,0,1-1,.06,7.951,7.951,0,0,0-1.627-.711,12.2,12.2,0,0,0-3.046-.427,15.856,15.856,0,0,0-4.569.391,14.515,14.515,0,0,0-6.189,3.437,5.476,5.476,0,0,1-2.223,1.308,3.781,3.781,0,0,1-3.5-6.441,23.76,23.76,0,0,1,5.4-3.933,20.771,20.771,0,0,1,6.893-2.225A21.722,21.722,0,0,1,346.194,563.708Z" transform="translate(-255.781 -453.735)" fill="#B94A2E" data-v-2d09c5f8=""></path><path id="Path_2617" data-name="Path 2617" d="M514.694,291.7c.548.751,1.049,1.472,1.588,2.164a14.235,14.235,0,0,0,8.624,5.479,17.364,17.364,0,0,0,5.03.2,4.279,4.279,0,0,1,3.308.85,3.588,3.588,0,0,1,1.274,3.883,3.453,3.453,0,0,1-2.985,2.7,22.092,22.092,0,0,1-11.835-1.224,22.449,22.449,0,0,1-7.2-4.775,7.792,7.792,0,0,1-.839-.889,1.393,1.393,0,0,1-.1-1.832,41.556,41.556,0,0,0,2.328-4.8C514.151,292.883,514.412,292.315,514.694,291.7Z" transform="translate(-419.249 -209.095)" fill="#791714" data-v-2d09c5f8=""></path><path id="Path_2618" data-name="Path 2618" d="M260.023,389.949a13.157,13.157,0,0,0-.747-5,12.945,12.945,0,0,0-2.426-4.153,18.675,18.675,0,0,0-4.809-3.9,3.594,3.594,0,0,1-1.57-1.645,2.767,2.767,0,0,1-.256-1.132,6.205,6.205,0,0,1,.181-1.977,3.525,3.525,0,0,1,2.542-2.356,4.162,4.162,0,0,1,3.538.688,27.583,27.583,0,0,1,4.87,4.024,23.124,23.124,0,0,1,6.009,11.615,2.5,2.5,0,0,1-1.642,3.138,31.106,31.106,0,0,0-4.445,2.331,2.631,2.631,0,0,1-.574.272c-.414.131-.659-.034-.669-.474C260.015,390.879,260.023,390.382,260.023,389.949Z" transform="translate(-184.468 -279.186)" fill="#FEEBB3" data-v-2d09c5f8=""></path><path id="Path_2619" data-name="Path 2619" d="M671.659,497.369a7.5,7.5,0,0,1,.558-2.876,5.091,5.091,0,0,1,2.968-2.918,6.642,6.642,0,0,1,5.473.119,5.834,5.834,0,0,1,3.384,5.3,6.018,6.018,0,0,1-4.547,6.238,6.349,6.349,0,0,1-7.193-3.072A5.665,5.665,0,0,1,671.659,497.369Z" transform="translate(-563.511 -388.382)" fill="#294617" data-v-2d09c5f8=""></path><path id="Path_2620" data-name="Path 2620" d="M441.294,675.845a6.213,6.213,0,1,1,6.179-6.23A6.074,6.074,0,0,1,441.294,675.845Z" transform="translate(-350.761 -543.416)" fill="#B94A2E" data-v-2d09c5f8=""></path><path id="Path_2621" data-name="Path 2621" d="M587.185,224.915a5.4,5.4,0,0,1-3.6-1.145,5.853,5.853,0,0,1-2.043-3.454,6.458,6.458,0,0,1,.531-4.576,5.741,5.741,0,0,1,5.031-3.156,6.028,6.028,0,0,1,5.451,2.478,6.182,6.182,0,0,1-3.96,9.766A8.735,8.735,0,0,1,587.185,224.915Z" transform="translate(-482.294 -137.928)" fill="#791714" data-v-2d09c5f8=""></path><path id="Path_2622" data-name="Path 2622" d="M293.8,212.553a6.179,6.179,0,1,1-6.294,6.083A6.143,6.143,0,0,1,293.8,212.553Z" transform="translate(-218.002 -137.91)" fill="#8D6826" data-v-2d09c5f8=""></path><path id="Path_2623" data-name="Path 2623" d="M204.585,504.073a5.955,5.955,0,0,1-6.137-6.1,6.206,6.206,0,0,1,6.4-6.209,6.157,6.157,0,0,1-.26,12.311Z" transform="translate(-137.91 -389.027)" fill="#FEEBB3" data-v-2d09c5f8=""></path></g></svg>